<svg width="24" height="24" viewBox="0 0 24 24" fill="none" xmlns="http://www.w3.org/2000/svg">
<path d="M12 19C10.6155 19 9.26216 18.5895 8.11101 17.8203C6.95987 17.0511 6.06266 15.9579 5.53285 14.6788C5.00303 13.3997 4.86441 11.9922 5.13451 10.6344C5.4046 9.2765 6.07129 8.02922 7.05026 7.05026C8.02922 6.07129 9.2765 5.4046 10.6344 5.13451C11.9922 4.86441 13.3997 5.00303 14.6788 5.53285C15.9579 6.06266 17.0511 6.95987 17.8203 8.11101C18.5895 9.26216 19 10.6155 19 12C18.9979 13.8559 18.2597 15.6351 16.9474 16.9474C15.6351 18.2597 13.8559 18.9979 12 19ZM12 7C10.6739 7 9.40215 7.52679 8.46447 8.46447C7.52679 9.40215 7 10.6739 7 12C7 13.3261 7.52679 14.5979 8.46447 15.5355C9.40215 16.4732 10.6739 17 12 17C13.3261 17 14.5979 16.4732 15.5355 15.5355C16.4732 14.5979 17 13.3261 17 12C17 10.6739 16.4732 9.40215 15.5355 8.46447C14.5979 7.52679 13.3261 7 12 7ZM12 15C11.2044 15 10.4413 14.6839 9.87868 14.1213C9.31607 13.5587 9 12.7957 9 12C9 11.2044 9.31607 10.4413 9.87868 9.87868C10.4413 9.31607 11.2044 9 12 9C12.7957 9 13.5587 9.31607 14.1213 9.87868C14.6839 10.4413 15 11.2044 15 12C15 12.7957 14.6839 13.5587 14.1213 14.1213C13.5587 14.6839 12.7957 15 12 15Z" fill="black"/>
</svg>
